<svg xmlns="http://www.w3.org/2000/svg" width="91" height="42" viewBox="0 0 91 42" fill="none"><path d="M9.285 32.39C8.135 32.39 7.03 32.21 5.97 31.85C4.91 31.49 3.985 30.975 3.195 30.305C2.405 29.625 1.84 28.82 1.5 27.89L4.425 26.795C4.595 27.275 4.92 27.705 5.4 28.085C5.89 28.455 6.47 28.745 7.14 28.955C7.82 29.165 8.535 29.27 9.285 29.27C10.085 29.27 10.835 29.14 11.535 28.88C12.245 28.62 12.815 28.26 13.245 27.8C13.685 27.34 13.905 26.8 13.905 26.18C13.905 25.54 13.675 25.015 13.215 24.605C12.765 24.195 12.185 23.87 11.475 23.63C10.775 23.39 10.045 23.21 9.285 23.09C7.815 22.85 6.495 22.5 5.325 22.04C4.165 21.58 3.245 20.935 2.565 20.105C1.895 19.275 1.56 18.195 1.56 16.865C1.56 15.615 1.915 14.525 2.625 13.595C3.345 12.665 4.29 11.945 5.46 11.435C6.64 10.915 7.915 10.655 9.285 10.655C10.415 10.655 11.505 10.835 12.555 11.195C13.615 11.545 14.545 12.06 15.345 12.74C16.155 13.41 16.735 14.225 17.085 15.185L14.13 16.25C13.96 15.76 13.635 15.335 13.155 14.975C12.675 14.605 12.095 14.315 11.415 14.105C10.745 13.895 10.035 13.79 9.285 13.79C8.485 13.78 7.735 13.91 7.035 14.18C6.345 14.44 5.78 14.8 5.34 15.26C4.9 15.72 4.68 16.255 4.68 16.865C4.68 17.615 4.885 18.185 5.295 18.575C5.705 18.965 6.255 19.255 6.945 19.445C7.645 19.625 8.425 19.79 9.285 19.94C10.665 20.16 11.94 20.525 13.11 21.035C14.29 21.545 15.235 22.225 15.945 23.075C16.665 23.915 17.025 24.95 17.025 26.18C17.025 27.42 16.665 28.51 15.945 29.45C15.235 30.38 14.29 31.105 13.11 31.625C11.94 32.135 10.665 32.39 9.285 32.39ZM31.6634 17H34.7834V32H31.6484L31.5284 29.825C31.0884 30.595 30.4934 31.215 29.7434 31.685C28.9934 32.155 28.1084 32.39 27.0884 32.39C25.9884 32.39 24.9534 32.185 23.9834 31.775C23.0134 31.355 22.1584 30.775 21.4184 30.035C20.6884 29.295 20.1184 28.445 19.7084 27.485C19.2984 26.515 19.0934 25.475 19.0934 24.365C19.0934 23.295 19.2934 22.29 19.6934 21.35C20.0934 20.4 20.6484 19.57 21.3584 18.86C22.0684 18.15 22.8884 17.595 23.8184 17.195C24.7584 16.785 25.7634 16.58 26.8334 16.58C27.9234 16.58 28.8834 16.83 29.7134 17.33C30.5534 17.82 31.2484 18.45 31.7984 19.22L31.6634 17ZM27.0134 29.375C27.8934 29.375 28.6634 29.16 29.3234 28.73C29.9834 28.29 30.4934 27.7 30.8534 26.96C31.2234 26.22 31.4084 25.4 31.4084 24.5C31.4084 23.59 31.2234 22.765 30.8534 22.025C30.4834 21.285 29.9684 20.7 29.3084 20.27C28.6584 19.83 27.8934 19.61 27.0134 19.61C26.1434 19.61 25.3484 19.83 24.6284 20.27C23.9084 20.71 23.3384 21.3 22.9184 22.04C22.4984 22.78 22.2884 23.6 22.2884 24.5C22.2884 25.41 22.5034 26.235 22.9334 26.975C23.3734 27.705 23.9484 28.29 24.6584 28.73C25.3784 29.16 26.1634 29.375 27.0134 29.375ZM37.7766 17H40.8966V32H37.7766V17ZM39.3666 14.825C38.8866 14.825 38.4866 14.67 38.1666 14.36C37.8466 14.05 37.6866 13.66 37.6866 13.19C37.6866 12.73 37.8466 12.345 38.1666 12.035C38.4866 11.715 38.8816 11.555 39.3516 11.555C39.8116 11.555 40.2016 11.715 40.5216 12.035C40.8416 12.345 41.0016 12.73 41.0016 13.19C41.0016 13.66 40.8416 14.05 40.5216 14.36C40.2116 14.67 39.8266 14.825 39.3666 14.825ZM44.5441 32V9.5H47.6641V32H44.5441ZM51.2531 17H54.3731V32H51.2531V17ZM52.8431 14.825C52.3631 14.825 51.9631 14.67 51.6431 14.36C51.3231 14.05 51.1631 13.66 51.1631 13.19C51.1631 12.73 51.3231 12.345 51.6431 12.035C51.9631 11.715 52.3581 11.555 52.8281 11.555C53.2881 11.555 53.6781 11.715 53.9981 12.035C54.3181 12.345 54.4781 12.73 54.4781 13.19C54.4781 13.66 54.3181 14.05 53.9981 14.36C53.6881 14.67 53.3031 14.825 52.8431 14.825ZM71.3449 22.595V32H68.2249V23.36C68.2249 22.69 68.0599 22.08 67.7299 21.53C67.4099 20.98 66.9749 20.545 66.4249 20.225C65.8849 19.895 65.2749 19.73 64.5949 19.73C63.9349 19.73 63.3299 19.895 62.7799 20.225C62.2299 20.545 61.7899 20.98 61.4599 21.53C61.1299 22.08 60.9649 22.69 60.9649 23.36V32H57.8449V17H60.9649V18.59C61.4849 17.97 62.1249 17.48 62.8849 17.12C63.6449 16.76 64.4649 16.58 65.3449 16.58C66.4549 16.58 67.4649 16.85 68.3749 17.39C69.2849 17.93 70.0049 18.655 70.5349 19.565C71.0749 20.475 71.3449 21.485 71.3449 22.595ZM85.4611 17H88.5811V32.39C88.5811 33.42 88.3611 34.37 87.9211 35.24C87.4911 36.11 86.9061 36.86 86.1661 37.49C85.4261 38.13 84.5761 38.625 83.6161 38.975C82.6661 39.325 81.6711 39.5 80.6311 39.5C79.5811 39.5 78.5711 39.275 77.6011 38.825C76.6311 38.385 75.7761 37.785 75.0361 37.025C74.3061 36.265 73.7611 35.405 73.4011 34.445L76.2661 33.155C76.4661 33.775 76.7861 34.325 77.2261 34.805C77.6761 35.285 78.1961 35.665 78.7861 35.945C79.3861 36.225 80.0011 36.365 80.6311 36.365C81.2511 36.365 81.8461 36.265 82.4161 36.065C82.9961 35.875 83.5111 35.605 83.9611 35.255C84.4211 34.905 84.7861 34.485 85.0561 33.995C85.3261 33.505 85.4611 32.97 85.4611 32.39V29.855C84.9711 30.615 84.3411 31.23 83.5711 31.7C82.8011 32.16 81.9061 32.39 80.8861 32.39C79.8261 32.39 78.8261 32.185 77.8861 31.775C76.9461 31.365 76.1211 30.8 75.4111 30.08C74.7011 29.35 74.1461 28.51 73.7461 27.56C73.3461 26.61 73.1461 25.59 73.1461 24.5C73.1461 23.41 73.3461 22.39 73.7461 21.44C74.1461 20.48 74.7011 19.64 75.4111 18.92C76.1211 18.19 76.9461 17.62 77.8861 17.21C78.8261 16.8 79.8261 16.595 80.8861 16.595C81.9061 16.595 82.8011 16.83 83.5711 17.3C84.3411 17.76 84.9711 18.375 85.4611 19.145V17ZM80.9161 29.375C81.7861 29.375 82.5461 29.155 83.1961 28.715C83.8461 28.265 84.3511 27.67 84.7111 26.93C85.0711 26.19 85.2511 25.38 85.2511 24.5C85.2511 23.6 85.0661 22.785 84.6961 22.055C84.3361 21.315 83.8311 20.725 83.1811 20.285C82.5311 19.835 81.7761 19.61 80.9161 19.61C80.0761 19.61 79.3061 19.83 78.6061 20.27C77.9161 20.71 77.3661 21.3 76.9561 22.04C76.5461 22.78 76.3411 23.6 76.3411 24.5C76.3411 25.4 76.5461 26.22 76.9561 26.96C77.3761 27.7 77.9311 28.29 78.6211 28.73C79.3211 29.16 80.0861 29.375 80.9161 29.375Z" fill="#121212"></path><path d="M55.6059 12.2828C55.5825 12.209 55.5372 12.144 55.4762 12.0963C55.4151 12.0486 55.3411 12.0205 55.2637 12.0156L53.8715 11.9195L53.3559 10.6187C53.3278 10.5471 53.2788 10.4856 53.2152 10.4421C53.1517 10.3987 53.0766 10.3753 52.9997 10.375C52.9227 10.3753 52.8476 10.3987 52.7841 10.4421C52.7206 10.4856 52.6716 10.5471 52.6434 10.6187L52.1184 11.9266L50.7356 12.0156C50.6584 12.0208 50.5845 12.049 50.5235 12.0967C50.4625 12.1443 50.4172 12.2091 50.3934 12.2828C50.369 12.3576 50.3676 12.438 50.3893 12.5136C50.4111 12.5892 50.4549 12.6566 50.5153 12.707L51.5794 13.607L51.263 14.8516C51.2411 14.9358 51.245 15.0246 51.2743 15.1065C51.3035 15.1884 51.3567 15.2597 51.427 15.3109C51.4952 15.3599 51.5765 15.3874 51.6604 15.3899C51.7443 15.3924 51.8271 15.3698 51.8981 15.325L52.9973 14.6289H53.002L54.1856 15.3766C54.2463 15.416 54.3171 15.4372 54.3895 15.4375C54.4486 15.437 54.5069 15.423 54.5597 15.3965C54.6126 15.37 54.6587 15.3318 54.6944 15.2847C54.7302 15.2376 54.7547 15.183 54.766 15.125C54.7774 15.0669 54.7752 15.0071 54.7598 14.95L54.4247 13.5883L55.484 12.707C55.5444 12.6566 55.5883 12.5892 55.61 12.5136C55.6317 12.438 55.6303 12.3576 55.6059 12.2828Z" fill="#121212"></path></svg>