<svg xmlns="http://www.w3.org/2000/svg" width="108" height="20" viewBox="0 0 108 20" fill="none"><path d="M18.6875 7.60938C18.6093 7.36327 18.4585 7.14654 18.255 6.98761C18.0515 6.82868 17.8046 6.73496 17.5469 6.71875L12.9063 6.39844L11.1875 2.0625C11.0937 1.82375 10.9303 1.61867 10.7186 1.47382C10.5069 1.32896 10.2566 1.25099 10 1.25V1.25C9.7435 1.25099 9.49317 1.32896 9.28146 1.47382C9.06974 1.61867 8.90638 1.82375 8.81253 2.0625L7.06253 6.42187L2.45315 6.71875C2.19574 6.73601 1.94942 6.83012 1.74607 6.9889C1.54272 7.14768 1.39169 7.36383 1.31253 7.60938C1.23123 7.85869 1.22648 8.12664 1.29889 8.37868C1.3713 8.63072 1.51755 8.85529 1.71878 9.02344L5.26565 12.0234L4.21097 16.1719C4.138 16.4525 4.15113 16.7486 4.24866 17.0217C4.34618 17.2948 4.5236 17.5322 4.75784 17.7031C4.98521 17.8663 5.2561 17.9579 5.53584 17.9663C5.81558 17.9746 6.09146 17.8993 6.32815 17.75L9.99222 15.4297H10.0078L13.9532 17.9219C14.1555 18.0534 14.3915 18.1239 14.6328 18.125C14.8299 18.1235 15.024 18.0767 15.2002 17.9884C15.3764 17.9002 15.53 17.7727 15.6492 17.6157C15.7684 17.4588 15.8501 17.2766 15.8878 17.0832C15.9256 16.8898 15.9186 16.6903 15.8672 16.5L14.75 11.9609L18.2813 9.02344C18.4825 8.85529 18.6288 8.63072 18.7012 8.37868C18.7736 8.12664 18.7688 7.85869 18.6875 7.60938Z" fill="#01AA90"></path><path d="M40.6875 7.60938C40.6093 7.36327 40.4585 7.14654 40.255 6.98761C40.0515 6.82868 39.8046 6.73496 39.5469 6.71875L34.9063 6.39844L33.1875 2.0625C33.0937 1.82375 32.9303 1.61867 32.7186 1.47382C32.5069 1.32896 32.2566 1.25099 32 1.25V1.25C31.7435 1.25099 31.4932 1.32896 31.2815 1.47382C31.0697 1.61867 30.9064 1.82375 30.8125 2.0625L29.0625 6.42187L24.4532 6.71875C24.1957 6.73601 23.9494 6.83012 23.7461 6.9889C23.5427 7.14768 23.3917 7.36383 23.3125 7.60938C23.2312 7.85869 23.2265 8.12664 23.2989 8.37868C23.3713 8.63072 23.5175 8.85529 23.7188 9.02344L27.2657 12.0234L26.211 16.1719C26.138 16.4525 26.1511 16.7486 26.2487 17.0217C26.3462 17.2948 26.5236 17.5322 26.7578 17.7031C26.9852 17.8663 27.2561 17.9579 27.5358 17.9663C27.8156 17.9746 28.0915 17.8993 28.3282 17.75L31.9922 15.4297H32.0078L35.9532 17.9219C36.1555 18.0534 36.3915 18.1239 36.6328 18.125C36.8299 18.1235 37.024 18.0767 37.2002 17.9884C37.3764 17.9002 37.53 17.7727 37.6492 17.6157C37.7684 17.4588 37.8501 17.2766 37.8878 17.0832C37.9256 16.8898 37.9186 16.6903 37.8672 16.5L36.75 11.9609L40.2813 9.02344C40.4825 8.85529 40.6288 8.63072 40.7012 8.37868C40.7736 8.12664 40.7688 7.85869 40.6875 7.60938Z" fill="#01AA90"></path><path d="M62.6875 7.60938C62.6093 7.36327 62.4585 7.14654 62.255 6.98761C62.0515 6.82868 61.8046 6.73496 61.5469 6.71875L56.9063 6.39844L55.1875 2.0625C55.0937 1.82375 54.9303 1.61867 54.7186 1.47382C54.5069 1.32896 54.2566 1.25099 54 1.25V1.25C53.7435 1.25099 53.4932 1.32896 53.2815 1.47382C53.0697 1.61867 52.9064 1.82375 52.8125 2.0625L51.0625 6.42187L46.4532 6.71875C46.1957 6.73601 45.9494 6.83012 45.7461 6.9889C45.5427 7.14768 45.3917 7.36383 45.3125 7.60938C45.2312 7.85869 45.2265 8.12664 45.2989 8.37868C45.3713 8.63072 45.5175 8.85529 45.7188 9.02344L49.2657 12.0234L48.211 16.1719C48.138 16.4525 48.1511 16.7486 48.2487 17.0217C48.3462 17.2948 48.5236 17.5322 48.7578 17.7031C48.9852 17.8663 49.2561 17.9579 49.5358 17.9663C49.8156 17.9746 50.0915 17.8993 50.3282 17.75L53.9922 15.4297H54.0078L57.9532 17.9219C58.1555 18.0534 58.3915 18.1239 58.6328 18.125C58.8299 18.1235 59.024 18.0767 59.2002 17.9884C59.3764 17.9002 59.53 17.7727 59.6492 17.6157C59.7684 17.4588 59.8501 17.2766 59.8878 17.0832C59.9256 16.8898 59.9186 16.6903 59.8672 16.5L58.75 11.9609L62.2813 9.02344C62.4825 8.85529 62.6288 8.63072 62.7012 8.37868C62.7736 8.12664 62.7688 7.85869 62.6875 7.60938Z" fill="#01AA90"></path><path d="M84.6875 7.60938C84.6093 7.36327 84.4585 7.14654 84.255 6.98761C84.0515 6.82868 83.8046 6.73496 83.5469 6.71875L78.9063 6.39844L77.1875 2.0625C77.0937 1.82375 76.9303 1.61867 76.7186 1.47382C76.5069 1.32896 76.2566 1.25099 76 1.25V1.25C75.7435 1.25099 75.4932 1.32896 75.2815 1.47382C75.0697 1.61867 74.9064 1.82375 74.8125 2.0625L73.0625 6.42187L68.4532 6.71875C68.1957 6.73601 67.9494 6.83012 67.7461 6.9889C67.5427 7.14768 67.3917 7.36383 67.3125 7.60938C67.2312 7.85869 67.2265 8.12664 67.2989 8.37868C67.3713 8.63072 67.5175 8.85529 67.7188 9.02344L71.2657 12.0234L70.211 16.1719C70.138 16.4525 70.1511 16.7486 70.2487 17.0217C70.3462 17.2948 70.5236 17.5322 70.7578 17.7031C70.9852 17.8663 71.2561 17.9579 71.5358 17.9663C71.8156 17.9746 72.0915 17.8993 72.3282 17.75L75.9922 15.4297H76.0078L79.9532 17.9219C80.1555 18.0534 80.3915 18.1239 80.6328 18.125C80.8299 18.1235 81.024 18.0767 81.2002 17.9884C81.3764 17.9002 81.53 17.7727 81.6492 17.6157C81.7684 17.4588 81.8501 17.2766 81.8878 17.0832C81.9256 16.8898 81.9186 16.6903 81.8672 16.5L80.75 11.9609L84.2813 9.02344C84.4825 8.85529 84.6288 8.63072 84.7012 8.37868C84.7736 8.12664 84.7688 7.85869 84.6875 7.60938Z" fill="#01AA90"></path><path d="M106.687 7.60938C106.609 7.36327 106.459 7.14654 106.255 6.98761C106.051 6.82868 105.805 6.73496 105.547 6.71875L100.906 6.39844L99.1875 2.0625C99.0936 1.82375 98.9303 1.61867 98.7186 1.47382C98.5069 1.32896 98.2565 1.25099 98 1.25V1.25C97.7435 1.25099 97.4931 1.32896 97.2814 1.47382C97.0697 1.61867 96.9063 1.82375 96.8125 2.0625L95.0625 6.42187L90.4531 6.71875C90.1957 6.73601 89.9494 6.83012 89.746 6.9889C89.5427 7.14768 89.3917 7.36383 89.3125 7.60938C89.2312 7.85869 89.2265 8.12664 89.2989 8.37868C89.3713 8.63072 89.5175 8.85529 89.7187 9.02344L93.2656 12.0234L92.2109 16.1719C92.138 16.4525 92.1511 16.7486 92.2486 17.0217C92.3462 17.2948 92.5236 17.5322 92.7578 17.7031C92.9852 17.8663 93.2561 17.9579 93.5358 17.9663C93.8156 17.9746 94.0914 17.8993 94.3281 17.75L97.9922 15.4297H98.0078L101.953 17.9219C102.156 18.0534 102.391 18.1239 102.633 18.125C102.83 18.1235 103.024 18.0767 103.2 17.9884C103.376 17.9002 103.53 17.7727 103.649 17.6157C103.768 17.4588 103.85 17.2766 103.888 17.0832C103.926 16.8898 103.919 16.6903 103.867 16.5L102.75 11.9609L106.281 9.02344C106.482 8.85529 106.629 8.63072 106.701 8.37868C106.774 8.12664 106.769 7.85869 106.687 7.60938Z" fill="#01AA90"></path></svg>