<svg width="16" height="16" viewBox="0 0 16 16" fill="none" xmlns="http://www.w3.org/2000/svg">
<path id="Vector" d="M15.1028 8.60261L15.2485 8.34822C16.7953 5.68659 15.8777 2.28323 13.1991 0.746518C10.5202 -0.790199 7.0952 0.121655 5.54871 2.78328L5.49831 2.86994C5.41875 3.00604 5.3961 3.16772 5.43522 3.32024C5.47434 3.47276 5.57211 3.60394 5.70752 3.6856L9.59654 6.02048L7.44202 9.56535C5.55791 9.73031 3.94782 10.724 3.08177 12.13C3.25962 12.1138 3.43893 12.1341 3.60851 12.1898C3.77809 12.2454 3.93431 12.3352 4.06743 12.4535C4.85627 11.3262 6.28035 10.5344 7.99885 10.5344C9.71775 10.5344 11.1422 11.3266 11.9311 12.4543C12.064 12.3359 12.22 12.246 12.3895 12.1901C12.5589 12.1342 12.7381 12.1136 12.9159 12.1296C12.0579 10.7368 10.4694 9.74859 8.60728 9.56972L10.4522 6.53445L14.2648 8.82322C14.334 8.86458 14.4109 8.89171 14.4909 8.90301C14.5709 8.91432 14.6524 8.90956 14.7305 8.88903C14.8086 8.8685 14.8817 8.83261 14.9456 8.78348C15.0095 8.73435 15.0628 8.67298 15.1024 8.60301L15.1028 8.60261ZM13.4696 2.1612C15.0336 3.55164 15.4773 5.87182 14.4328 7.7635L12.4831 6.59288L12.4899 6.58175C12.5379 6.50622 12.6027 6.3985 12.6771 6.26097C12.8259 5.9863 13.0135 5.59159 13.1743 5.10426C13.4304 4.32954 13.6216 3.30877 13.4696 2.1612ZM11.7671 1.20046C10.9074 1.58444 10.1654 2.22003 9.61494 2.78646C9.19757 3.21726 8.81465 3.67976 8.46968 4.16975L8.46288 4.17889L6.56477 3.03927C7.70683 1.32448 9.84535 0.603817 11.7671 1.20046ZM9.32092 4.69404C9.62731 4.26363 9.96588 3.85677 10.3338 3.47691C10.925 2.86874 11.6575 2.28045 12.4319 2.00459C12.6363 3.08458 12.4679 4.05686 12.2243 4.79421C12.1112 5.13778 11.9679 5.47083 11.7963 5.78954C11.7434 5.88785 11.6869 5.98424 11.6271 6.07852L9.32092 4.69404ZM13.0787 13.0045C12.9987 12.9509 12.9048 12.9215 12.8083 12.9198H12.7887C12.6856 12.9221 12.5857 12.9559 12.5027 13.0167C12.4197 13.0774 12.3575 13.1621 12.3247 13.2593L12.3243 13.2605C12.3071 13.3066 11.8059 14.7081 10.399 14.7081C8.99091 14.7081 8.49288 13.3169 8.47328 13.2589C8.44012 13.1599 8.37645 13.0738 8.2913 13.0128C8.20614 12.9518 8.10383 12.919 7.99885 12.919C7.89387 12.919 7.79155 12.9518 7.7064 13.0128C7.62125 13.0738 7.55758 13.1599 7.52442 13.2589L7.52402 13.2601C7.50682 13.3066 7.00559 14.7081 5.59871 14.7081C4.19064 14.7081 3.69261 13.3169 3.67461 13.2589C3.64216 13.1616 3.5801 13.0767 3.497 13.016C3.41396 12.9553 3.31406 12.9215 3.21098 12.9194H3.20218C3.1005 12.919 3.00112 12.9494 2.91729 13.0066C2.83345 13.0638 2.76915 13.145 2.73295 13.2394C2.72615 13.2573 2.03771 15.0063 0.500028 15.0063C0.367412 15.0063 0.240228 15.0586 0.146455 15.1518C0.0526814 15.245 0 15.3714 0 15.5031C0 15.6349 0.0526814 15.7613 0.146455 15.8545C0.240228 15.9477 0.367412 16 0.500028 16C1.04393 15.9843 1.57535 15.8343 2.04643 15.5637C2.5175 15.2931 2.91344 14.9103 3.19858 14.4498C3.46715 14.8353 3.82572 15.1503 4.24361 15.3681C4.6615 15.5858 5.12625 15.6996 5.59809 15.6998C6.06992 15.7001 6.53479 15.5867 6.9529 15.3694C7.371 15.1521 7.72989 14.8374 7.99885 14.4522C8.2678 14.8374 8.6267 15.1521 9.0448 15.3694C9.46291 15.5867 9.92778 15.7001 10.3996 15.6998C10.8715 15.6996 11.3362 15.5858 11.7541 15.3681C12.172 15.1503 12.5306 14.8353 12.7991 14.4498C13.0844 14.9105 13.4806 15.2935 13.9519 15.5641C14.4233 15.8348 14.9551 15.9846 15.4993 16C15.6319 16 15.7591 15.9477 15.8528 15.8545C15.9466 15.7613 15.9993 15.6349 15.9993 15.5031C15.9993 15.3714 15.9466 15.245 15.8528 15.1518C15.7591 15.0586 15.6319 15.0063 15.4993 15.0063C14.5072 15.0063 13.864 14.2657 13.5336 13.7434V13.7426C13.4306 13.5826 13.3414 13.4143 13.2667 13.2394C13.23 13.1436 13.1643 13.0618 13.0787 13.0045Z" fill="#7E7E7E"/>
</svg>
