<svg width="17" height="17" viewBox="0 0 17 17" fill="none" xmlns="http://www.w3.org/2000/svg">
<g id="Group">
<path id="Vector" d="M1 1V3.57143C1 4.32919 1.30102 5.05592 1.83684 5.59173C2.37266 6.12755 3.09938 6.42857 3.85714 6.42857C4.6149 6.42857 5.34163 6.12755 5.87745 5.59173C6.41327 5.05592 6.71429 4.32919 6.71429 3.57143V1M3.85714 1V15.8571M15.8571 15.8571C13.887 15.8571 11.9975 15.0745 10.6043 13.6814C9.21122 12.2882 8.42857 10.3988 8.42857 8.42857C8.42857 6.45839 9.21122 4.56891 10.6043 3.17578C11.9975 1.78265 13.887 1 15.8571 1" stroke="#7E7E7E" stroke-linecap="round" stroke-linejoin="round"/>
<path id="Vector_2" d="M15.8555 12.4287C14.7946 12.4287 13.7772 12.0073 13.027 11.2571C12.2769 10.507 11.8555 9.48958 11.8555 8.42871C11.8555 7.36785 12.2769 6.35043 13.027 5.60028C13.7772 4.85014 14.7946 4.42871 15.8555 4.42871" stroke="#7E7E7E" stroke-linecap="round" stroke-linejoin="round"/>
</g>
</svg>
