<svg width="20" height="18" viewBox="0 0 20 18" fill="none" xmlns="http://www.w3.org/2000/svg">
<path id="Vector" d="M19 9.88892C17.8379 9.44096 15.6842 7.66672 11.8947 10.3333C10.8986 9.81061 9.05263 8.55562 6.21053 10.7777C5.87847 9.50856 5.81206 6.61951 6.21053 4.111C6.37655 3.73771 7.06046 3.47344 9.05263 5.44439L11.4211 3.2222C11.255 2.25162 10 1 6.21053 1C4.78947 1 3.49238 2.14013 2.89474 4.11105C2.14766 6.12684 1 10.7778 1 13.4445C0.999995 14.2657 2.18421 16.1112 6.68421 16.1112C7.63158 16.1112 10.4027 16.2112 13.7895 14.7778L16.6316 17" stroke="#7E7E7E" stroke-width="1.3" stroke-linecap="round" stroke-linejoin="round"/>
</svg>
