<svg width="19" height="16" viewBox="0 0 19 16" fill="none" xmlns="http://www.w3.org/2000/svg">
<path d="M1.72203 0L0.810667 0.839098L17.2773 16L18.1881 15.1615L14.2101 11.4984H19V7.99971H10.4101L1.72203 0ZM9.519 1.00237C9.291 1.21229 9.12317 1.46011 8.92557 1.85896C8.72733 2.25723 8.5519 2.7587 8.54937 3.31674C8.54683 3.87478 8.7571 4.51212 9.30177 4.99319C9.8458 5.47367 10.6767 5.78622 11.8351 5.92266C12.7997 6.03637 13.4203 6.18215 13.7744 6.37749C14.1284 6.574 14.2747 6.77401 14.3881 7.25216L15.6345 6.99734C15.4717 6.30927 15.0581 5.72441 14.4273 5.37571C13.7965 5.02701 13.0245 4.87715 11.9934 4.75586C11.0054 4.63982 10.4544 4.385 10.1726 4.13659C9.89013 3.88819 9.81603 3.63337 9.81603 3.31674C9.81603 3.00011 9.9275 2.64441 10.0732 2.35052C10.2188 2.05722 10.4443 1.79074 10.4101 1.82222L9.519 1.00237ZM13.0226 1.18488V2.35111C13.4153 2.35111 13.9226 2.40534 14.3083 2.60593C14.6946 2.80652 15.0214 3.10274 15.0999 3.95466L15.1601 4.50104H15.7339C16.0601 4.50104 16.7409 4.59434 17.0797 4.86548C17.2476 5.00193 17.3565 5.1617 17.3964 5.46667C17.4357 5.77222 17.3761 6.23871 17.0797 6.90637L18.2672 7.34371C18.6206 6.55068 18.7372 5.89293 18.6631 5.32089C18.6 4.807 18.3318 4.33299 17.9107 3.99082C17.3394 3.53016 16.7181 3.41237 16.2089 3.37097C15.9885 2.52837 15.5312 1.89278 14.9422 1.58548C14.2323 1.21404 13.4919 1.1843 13.022 1.1843L13.0226 1.18488ZM0 7.99971V11.4984H10.6482L9.38157 10.3322H1.26667V9.16593H8.1149L6.84823 7.99971H0ZM11.6774 9.16593H13.9333V10.3322H12.9434L11.6774 9.16593ZM15.2 9.16593H15.8333V10.3322H15.2V9.16593ZM17.1 9.16593H17.7333V10.3322H17.1V9.16593Z" fill="#B3B3B3"/>
</svg>
