<svg width="17" height="16" viewBox="0 0 17 16" fill="none" xmlns="http://www.w3.org/2000/svg">
<path d="M5.80693 0C4.69469 0 3.78713 0.898667 3.78713 2V10.4167L4.4604 9.93733L5.13366 10.4167V2C5.13366 1.63333 5.43663 1.33333 5.80693 1.33333H6.4802V0H5.80693ZM13.8861 0C12.7739 0 11.8663 0.898667 11.8663 2V2.66667H5.80693V4H11.8663V5.33333H5.80693V6.66667H11.8663V8H5.80693V9.33333H11.8663V10.4167L12.5396 9.93733L13.2129 10.4167V2C13.2129 1.63333 13.5158 1.33333 13.8861 1.33333H14.5594V0H13.8861ZM4.4604 11.146L4.0396 11.4793C4.0396 11.4793 3.36364 12 2.46147 12C1.55929 12 0.841584 11.4793 0.841584 11.4793L0 12.5207C0 12.5207 1.03885 13.3333 2.46147 13.3333C3.44511 13.3333 4.07057 13.0107 4.4604 12.7707C4.85224 13.008 5.51002 13.3333 6.50107 13.3333C7.48471 13.3333 8.11018 13.0107 8.5 12.7707C8.89184 13.008 9.54962 13.3333 10.5407 13.3333C11.5243 13.3333 12.1498 13.0107 12.5396 12.7707C12.9314 13.008 13.5892 13.3333 14.5803 13.3333C16.0036 13.3333 17 12.5207 17 12.5207L16.1584 11.4793C16.1584 11.4793 15.4825 12 14.5803 12C13.6781 12 12.9604 11.4793 12.9604 11.4793L12.5396 11.146L12.1188 11.4793C12.1188 11.4793 11.4429 12 10.5407 12C9.63849 12 8.92079 11.4793 8.92079 11.4793L8.5 11.146L8.07921 11.4793C8.07921 11.4793 7.40325 12 6.50107 12C5.59889 12 4.88119 11.4793 4.88119 11.4793L4.4604 11.146ZM4.4604 13.8127L4.0396 14.146C4.0396 14.146 3.36364 14.6667 2.46147 14.6667C1.55929 14.6667 0.841584 14.146 0.841584 14.146L0 15.1873C0 15.1873 1.03885 16 2.46147 16C3.44511 16 4.07057 15.6773 4.4604 15.4373C4.85224 15.6747 5.51002 16 6.50107 16C7.48471 16 8.11018 15.6773 8.5 15.4373C8.89184 15.6747 9.54962 16 10.5407 16C11.5243 16 12.1498 15.6773 12.5396 15.4373C12.9314 15.6747 13.5892 16 14.5803 16C16.0036 16 17 15.1873 17 15.1873L16.1584 14.146C16.1584 14.146 15.4825 14.6667 14.5803 14.6667C13.6781 14.6667 12.9604 14.146 12.9604 14.146L12.5396 13.8127L12.1188 14.146C12.1188 14.146 11.4429 14.6667 10.5407 14.6667C9.63849 14.6667 8.92079 14.146 8.92079 14.146L8.5 13.8127L8.07921 14.146C8.07921 14.146 7.40325 14.6667 6.50107 14.6667C5.59889 14.6667 4.88119 14.146 4.88119 14.146L4.4604 13.8127Z" fill="#B3B3B3"/>
</svg>
