<svg width="16" height="16" viewBox="0 0 16 16" fill="none" xmlns="http://www.w3.org/2000/svg">
<g id="streamline:food-kitchenware-chef-toque-hat-cook-gear-chef-cooking-nutrition-tools-clothes-hat-clothing-food" clip-path="url(#clip0_726_568)">
<g id="Vector">
<path d="M2.85713 15.429H13.1428H2.85713ZM15.3486 3.88618C15.2323 3.40689 14.9935 2.96604 14.6556 2.60684C14.3176 2.24765 13.8921 1.98245 13.4208 1.83725C12.9495 1.69205 12.4485 1.67183 11.967 1.77859C11.4855 1.88534 11.0401 2.11539 10.6743 2.44618C10.4746 1.89728 10.1109 1.42311 9.63245 1.08804C9.15402 0.752975 8.58408 0.573242 7.99999 0.573242C7.41589 0.573242 6.84595 0.752975 6.36752 1.08804C5.8891 1.42311 5.52536 1.89728 5.3257 2.44618C4.95991 2.11539 4.51443 1.88534 4.03294 1.77859C3.55145 1.67183 3.05048 1.69205 2.57915 1.83725C2.10783 1.98245 1.68233 2.24765 1.34439 2.60684C1.00644 2.96604 0.767642 3.40689 0.651413 3.88618C0.560606 4.26021 0.545998 4.64869 0.608459 5.02848C0.67092 5.40827 0.809173 5.77161 1.01498 6.09685C1.22079 6.4221 1.48995 6.7026 1.80643 6.92165C2.12291 7.1407 2.48024 7.29382 2.85713 7.3719V11.429C2.85713 11.7321 2.97754 12.0228 3.19186 12.2372C3.40619 12.4515 3.69688 12.5719 3.99998 12.5719H12C12.3031 12.5719 12.5938 12.4515 12.8081 12.2372C13.0224 12.0228 13.1428 11.7321 13.1428 11.429V7.3719C13.5197 7.29382 13.8771 7.1407 14.1935 6.92165C14.51 6.7026 14.7792 6.4221 14.985 6.09685C15.1908 5.77161 15.3291 5.40827 15.3915 5.02848C15.454 4.64869 15.4394 4.26021 15.3486 3.88618ZM2.85713 9.71476H13.1428H2.85713Z" fill="white"/>
<path d="M2.85713 15.429H13.1428M2.85713 9.71476H13.1428M15.3486 3.88618C15.2323 3.40689 14.9935 2.96604 14.6556 2.60684C14.3176 2.24765 13.8921 1.98245 13.4208 1.83725C12.9495 1.69205 12.4485 1.67183 11.967 1.77859C11.4855 1.88534 11.0401 2.11539 10.6743 2.44618C10.4746 1.89728 10.1109 1.42311 9.63245 1.08804C9.15402 0.752975 8.58408 0.573242 7.99999 0.573242C7.41589 0.573242 6.84595 0.752975 6.36752 1.08804C5.8891 1.42311 5.52536 1.89728 5.3257 2.44618C4.95991 2.11539 4.51443 1.88534 4.03294 1.77859C3.55145 1.67183 3.05048 1.69205 2.57915 1.83725C2.10783 1.98245 1.68233 2.24765 1.34439 2.60684C1.00644 2.96604 0.767642 3.40689 0.651413 3.88618C0.560606 4.26021 0.545998 4.64869 0.608459 5.02848C0.67092 5.40827 0.809173 5.77161 1.01498 6.09685C1.22079 6.4221 1.48995 6.7026 1.80643 6.92165C2.12291 7.1407 2.48024 7.29382 2.85713 7.3719V11.429C2.85713 11.7321 2.97754 12.0228 3.19186 12.2372C3.40619 12.4515 3.69688 12.5719 3.99998 12.5719H12C12.3031 12.5719 12.5938 12.4515 12.8081 12.2372C13.0224 12.0228 13.1428 11.7321 13.1428 11.429V7.3719C13.5197 7.29382 13.8771 7.1407 14.1935 6.92165C14.51 6.7026 14.7792 6.4221 14.985 6.09685C15.1908 5.77161 15.329 5.40827 15.3915 5.02848C15.454 4.64869 15.4394 4.26021 15.3486 3.88618Z" stroke="#7E7E7E" stroke-linecap="round" stroke-linejoin="round"/>
</g>
</g>
<defs>
<clipPath id="clip0_726_568">
<rect width="16" height="16" fill="white"/>
</clipPath>
</defs>
</svg>
