<svg width="19" height="18" viewBox="0 0 19 18" fill="none" xmlns="http://www.w3.org/2000/svg">
<path id="Vector" d="M7.95699 7.85962C7.65328 7.18789 7.51178 6.46097 7.54273 5.73141C7.57368 5.00185 7.7763 4.28788 8.13595 3.64113C8.49559 2.99437 9.00328 2.43099 9.62229 1.99171C10.2413 1.55243 10.9562 1.24822 11.7153 1.10109C12.4743 0.953964 13.2586 0.967582 14.0114 1.14096C14.7642 1.31434 15.4667 1.64316 16.0681 2.10363C16.6695 2.5641 17.1548 3.14472 17.4889 3.80352C17.823 4.46232 17.9976 5.18284 18 5.91298C18.0005 6.56035 17.8657 7.20148 17.6032 7.79975C17.3407 8.39801 16.9556 8.94168 16.47 9.39969M12.7693 5.91298L14.7308 4.0649M13.7631 11.6544L12.4554 11.2355C12.3478 11.1943 12.2273 11.1944 12.1198 11.2358C12.0122 11.2773 11.9262 11.3568 11.88 11.4572L10.9254 12.8494L5.6947 10.3853C5.2879 10.1656 4.83552 10.0313 4.36851 9.99146C3.9015 9.95167 3.43088 10.0074 2.98884 10.1548C2.54679 10.3022 2.14375 10.5378 1.80729 10.8455C1.47083 11.1533 1.20887 11.5258 1.03935 11.9377C1.00499 12.0429 0.992959 12.1534 1.00394 12.263C1.01492 12.3725 1.04869 12.4789 1.10334 12.5762C1.15798 12.6734 1.23243 12.7596 1.32242 12.8297C1.41241 12.8999 1.51618 12.9526 1.62781 12.985L5.04086 14.0199L5.38086 14.1185L6.02162 16.2006C6.0422 16.2727 6.08176 16.3387 6.13662 16.3926C6.19148 16.4464 6.25987 16.4863 6.33547 16.5087L7.87853 16.9768C7.95851 17.0018 8.04403 17.0067 8.12662 16.991C8.20921 16.9753 8.28602 16.9395 8.34943 16.8872C8.41284 16.8349 8.46067 16.768 8.48817 16.6929C8.51567 16.6179 8.52189 16.5374 8.50622 16.4594L8.19238 14.9932L8.41468 15.0548L11.7493 16.0774C11.9678 16.1484 12.2073 16.1351 12.4154 16.0405C12.6236 15.9459 12.7837 15.7776 12.8608 15.5723L14.0377 12.1595C14.0676 12.0582 14.0559 11.95 14.005 11.8564C13.9542 11.7629 13.8678 11.6907 13.7631 11.6544Z" stroke="#7E7E7E" stroke-width="1.2" stroke-linecap="round" stroke-linejoin="round"/>
</svg>
