<svg width="19" height="14" viewBox="0 0 19 14" fill="none" xmlns="http://www.w3.org/2000/svg">
<path d="M10.5178 13.0001C10.5178 13.1978 10.4581 13.3912 10.3463 13.5556C10.2344 13.72 10.0755 13.8482 9.8895 13.9239C9.70352 13.9996 9.49887 14.0194 9.30143 13.9808C9.104 13.9422 8.92264 13.847 8.78029 13.7071C8.63795 13.5673 8.54101 13.3891 8.50174 13.1952C8.46246 13.0012 8.48262 12.8001 8.55966 12.6174C8.63669 12.4347 8.76715 12.2785 8.93453 12.1687C9.10191 12.0588 9.29869 12.0002 9.5 12.0002C9.76994 12.0002 10.0288 12.1055 10.2197 12.293C10.4106 12.4805 10.5178 12.7349 10.5178 13.0001ZM18.752 3.25083C16.1434 1.14881 12.8739 0 9.5 0C6.12615 0 2.85659 1.14881 0.247993 3.25083C0.10886 3.3631 0.0208215 3.52506 0.0032447 3.7011C-0.014332 3.87713 0.039993 4.05282 0.154269 4.18951C0.268545 4.32619 0.433411 4.41268 0.612598 4.42995C0.791786 4.44722 0.970617 4.39385 1.10975 4.28158C3.47552 2.37566 6.44049 1.33405 9.5 1.33405C12.5595 1.33405 15.5245 2.37566 17.8903 4.28158C18.0294 4.39385 18.2082 4.44722 18.3874 4.42995C18.4761 4.4214 18.5623 4.39577 18.6409 4.35451C18.7195 4.31326 18.7891 4.25719 18.8457 4.18951C18.9023 4.12183 18.9448 4.04386 18.9707 3.96006C18.9966 3.87626 19.0055 3.78826 18.9968 3.7011C18.9881 3.61393 18.962 3.52931 18.92 3.45205C18.878 3.37479 18.8209 3.30642 18.752 3.25083ZM16.031 6.23143C14.1729 4.78623 11.8725 3.99989 9.50255 3.99989C7.13262 3.99989 4.83215 4.78623 2.97406 6.23143C2.83302 6.34127 2.74216 6.50165 2.72148 6.67729C2.7008 6.85294 2.752 7.02946 2.8638 7.16803C2.9756 7.30659 3.13885 7.39585 3.31764 7.41616C3.49643 7.43648 3.67611 7.38619 3.81716 7.27635C5.43538 6.01797 7.43873 5.3333 9.50255 5.3333C11.5664 5.3333 13.5697 6.01797 15.1879 7.27635C15.2578 7.33074 15.3378 7.37109 15.4235 7.39509C15.5092 7.41908 15.5989 7.42625 15.6875 7.41619C15.776 7.40613 15.8616 7.37904 15.9395 7.33646C16.0174 7.29388 16.0859 7.23664 16.1413 7.16803C16.1967 7.09942 16.2377 7.02077 16.2622 6.93657C16.2866 6.85237 16.2939 6.76426 16.2836 6.67729C16.2734 6.59032 16.2458 6.50618 16.2025 6.42968C16.1591 6.35318 16.1009 6.28581 16.031 6.23143ZM13.2948 9.2112C12.1926 8.42426 10.8651 8.0004 9.50255 8.0004C8.14002 8.0004 6.81249 8.42426 5.71031 9.2112C5.56476 9.31529 5.46727 9.47192 5.43927 9.64663C5.41128 9.82133 5.45507 9.99981 5.56103 10.1428C5.66698 10.2858 5.82641 10.3816 6.00425 10.4091C6.18208 10.4366 6.36375 10.3935 6.5093 10.2895C7.37913 9.66798 8.42701 9.33322 9.50255 9.33322C10.5781 9.33322 11.626 9.66798 12.4958 10.2895C12.5679 10.341 12.6496 10.3781 12.7362 10.3986C12.8229 10.4191 12.9128 10.4227 13.0008 10.4091C13.0889 10.3954 13.1734 10.3649 13.2494 10.3192C13.3255 10.2736 13.3916 10.2136 13.4441 10.1428C13.4965 10.072 13.5343 9.99174 13.5552 9.90661C13.5761 9.82147 13.5797 9.73313 13.5658 9.64663C13.552 9.56012 13.5209 9.47714 13.4744 9.40243C13.4279 9.32772 13.3668 9.26274 13.2948 9.2112Z" fill="#B3B3B3"/>
</svg>
