<svg width="24" height="25" viewBox="0 0 24 25" fill="none" xmlns="http://www.w3.org/2000/svg">
<g clip-path="url(#clip0_1650_12382)">
<path d="M22.88 1.12835C21.59 1.55835 20.3 1.98835 19 2.40835C18.81 2.46835 18.6 2.48835 18.41 2.45835C15.43 1.93835 12.46 1.40835 9.49 0.888353C8.52 0.708353 7.55 0.528353 6.58 0.398353C3.56 -0.00164703 0.58 2.23835 0.09 5.24835C0.06 5.41835 0.03 5.58835 0 5.74835V6.68835C0.02 6.75835 0.04 6.82835 0.05 6.88835C0.21 8.26835 0.8 9.44835 1.79 10.4084C2.74 11.3184 3.87 11.8584 5.17 12.0384C5.34 12.0684 5.47 12.0784 5.51 12.3184C5.83 14.2784 6.18 16.2384 6.52 18.1984C6.71 19.3184 7.47 20.1584 8.52 20.3684C8.69 20.3984 8.74 20.4684 8.77 20.6284C9.24 22.9984 11.61 24.5784 13.97 24.0984C16.06 23.6684 17.55 21.8584 17.57 19.7184C17.58 18.9084 17.57 18.0984 17.58 17.2884C17.58 16.6084 18.23 16.1484 18.86 16.3484C19.29 16.4884 19.55 16.8684 19.55 17.3584V23.3884C19.55 23.6784 19.63 23.9284 19.9 24.0784C20.38 24.3684 20.95 24.0184 20.95 23.4284V17.3584C20.95 17.1984 20.93 17.0484 20.91 16.8884C20.73 15.7584 19.71 14.8984 18.55 14.9084C17.4 14.9084 16.38 15.7684 16.23 16.8884C16.16 17.3584 16.19 17.8384 16.18 18.3084C16.16 18.9384 16.2 19.5684 16.12 20.1884C15.95 21.5884 14.7 22.7184 13.33 22.7784C11.79 22.8384 10.51 21.8884 10.16 20.4384C10.12 20.2784 10.13 20.1884 10.29 20.1084C11.26 19.5584 11.75 18.5284 11.56 17.4284C11.26 15.6784 10.96 13.9284 10.65 12.1684C10.61 11.9184 10.57 11.6584 10.53 11.4184C10.53 11.4184 10.55 11.4084 10.59 11.3884C13.15 10.9284 15.71 10.4784 18.26 10.0184C18.57 9.95835 18.86 9.98835 19.15 10.0984C20.39 10.5184 21.62 10.9184 22.86 11.3284C23.46 11.5184 23.68 11.4384 24 10.9084V1.57835C23.73 1.03835 23.47 0.928353 22.88 1.12835ZM9.24 19.0184C8.63 19.1284 8.04 18.7184 7.93 18.0884C7.58 16.1184 7.24 14.1384 6.89 12.1684V12.0384C7.64 11.9084 8.38 11.7784 9.15 11.6484C9.22 12.0584 9.28 12.4484 9.35 12.8384C9.63 14.4584 9.91 16.0784 10.18 17.6984C10.29 18.3484 9.88 18.8984 9.24 19.0184ZM18.04 8.64835C17.12 8.80835 16.22 8.96835 15.31 9.12835C13.5 9.44835 11.69 9.77835 9.87 10.0884C8.74 10.2884 7.61 10.5184 6.47 10.6584C4 10.9684 1.74 9.16835 1.45 6.81835C1.08 3.86835 3.64 1.34835 6.59 1.80835C8.43 2.08835 10.26 2.43835 12.1 2.75835C14.01 3.09835 15.92 3.43835 17.84 3.77835C17.9 3.78835 17.97 3.80835 18.04 3.81835V8.64835ZM22.59 9.75835C22.18 9.62835 21.79 9.49835 21.4 9.36835C20.81 9.16835 20.22 8.96835 19.62 8.78835C19.48 8.73835 19.45 8.67835 19.45 8.53835V3.91835C19.45 3.81835 19.45 3.72835 19.58 3.68835C20.57 3.36835 21.55 3.03835 22.53 2.71835C22.55 2.71835 22.57 2.71835 22.59 2.72835V9.75835Z" fill="#018058"/>
<path d="M6.0198 4.02862C4.8198 4.00862 3.8098 5.00862 3.7998 6.21862C3.7998 7.42862 4.7798 8.41861 5.9798 8.42862C7.1998 8.42862 8.1898 7.44862 8.1998 6.23862C8.1998 5.03861 7.2298 4.04862 6.0198 4.02862ZM5.9998 7.02862C5.5498 7.02862 5.1998 6.66862 5.1998 6.22862C5.1998 5.78862 5.5598 5.43862 5.9898 5.42862C6.4198 5.42862 6.7998 5.77861 6.7998 6.21862C6.7998 6.65862 6.4498 7.02862 5.9998 7.02862Z" fill="#018058"/>
</g>
<defs>
<clipPath id="clip0_1650_12382">
<rect width="24" height="24" fill="white" transform="translate(0 0.268555)"/>
</clipPath>
</defs>
</svg>
