<svg width="24" height="25" viewBox="0 0 24 25" fill="none" xmlns="http://www.w3.org/2000/svg">
<g clip-path="url(#clip0_1650_12390)">
<path d="M21.4196 9.87855C21.3796 8.53855 21.3796 7.18855 21.2796 5.84855C21.1396 3.95855 20.1996 2.51855 18.5396 1.58855C17.7196 1.11855 16.8596 0.738555 16.0096 0.318555C15.9896 0.308555 15.9596 0.288555 15.9396 0.268555H8.0596C7.3096 0.638555 6.5596 1.01855 5.80959 1.38855C4.06959 2.25855 3.01959 3.62855 2.74959 5.54855C2.63959 6.36856 2.6596 7.21855 2.6296 8.04855C2.5296 11.8186 2.42959 15.5786 2.31959 19.3386C2.30959 19.8486 2.58959 20.1486 3.09959 20.1486C3.96959 20.1586 4.84959 20.1486 5.71959 20.1486H5.98959C5.91959 20.8786 5.85959 21.5786 5.78959 22.2786C5.75959 22.6686 5.71959 23.0486 5.67959 23.4386C5.62959 23.8486 5.8496 24.0986 6.18959 24.2686H17.8096C18.2596 24.0686 18.3696 23.7186 18.3096 23.2586C18.1896 22.2586 18.1096 21.2486 18.0196 20.2486C18.0096 20.2286 18.0196 20.1986 18.0296 20.1486H20.8796C21.4296 20.1486 21.6996 19.8586 21.6796 19.3186C21.5896 16.1686 21.5096 13.0286 21.4196 9.87855ZM14.6496 1.68855C13.7696 3.62855 12.8996 5.54855 11.9996 7.53855C11.1096 5.56855 10.2296 3.63855 9.3496 1.68855H14.6496ZM6.2996 9.13855C6.3996 10.6386 6.5196 12.1286 6.5896 13.6286C6.6196 14.1386 6.5196 14.6586 6.46959 15.1686C6.35959 16.3486 6.23959 17.5286 6.1296 18.7286H3.74959V18.4486C3.84959 14.7686 3.95959 11.0886 4.05959 7.41855C4.07959 6.79855 4.06959 6.17856 4.1696 5.56855C4.3596 4.38856 5.00959 3.47855 6.03959 2.86855C6.62959 2.51855 7.25959 2.24855 7.9096 1.91855C9.58959 5.61855 11.2596 9.30855 12.9396 13.0186H7.96959C7.93959 12.5586 7.9096 12.0886 7.8796 11.6286C7.7696 9.97855 7.6596 8.32855 7.5496 6.67855C7.5196 6.27855 7.1896 5.99855 6.7996 6.01855C6.4196 6.03855 6.1196 6.34855 6.1496 6.75855C6.18959 7.54855 6.2496 8.34855 6.2996 9.13855ZM13.3096 22.8486H7.1496C7.1996 22.3686 7.2396 21.8986 7.2796 21.4286C7.4296 19.8486 7.58959 18.2686 7.73959 16.6886C7.79959 15.9986 7.8696 15.3086 7.92959 14.6186C7.9396 14.4986 7.96959 14.4286 8.10959 14.4286C9.61959 14.4386 11.1196 14.4286 12.6796 14.4286C12.6296 14.5286 12.5896 14.5986 12.5396 14.6686C11.7296 15.8586 10.9096 17.0486 10.0996 18.2386C9.7796 18.7086 9.98959 19.2686 10.5096 19.3686C10.8496 19.4386 11.0896 19.2786 11.2696 19.0186C11.8896 18.1086 12.5096 17.1986 13.1396 16.2886C13.1796 16.2186 13.2296 16.1586 13.3096 16.0486V22.8486ZM14.7496 22.8486V14.4386C15.1596 14.4386 15.5596 14.4286 15.9596 14.4486C15.9996 14.4486 16.0596 14.5586 16.0696 14.6186C16.1696 15.6386 16.2596 16.6686 16.3596 17.6986C16.5096 19.2686 16.6596 20.8286 16.8096 22.3986C16.8196 22.5386 16.8296 22.6786 16.8496 22.8486H14.7496ZM20.2496 18.7286H17.8696C17.7096 17.0686 17.5296 15.4386 17.4096 13.8086C17.3696 13.2286 17.4696 12.6386 17.4996 12.0586C17.6096 10.5186 17.7096 8.98855 17.8096 7.44855C17.8296 7.22855 17.8496 6.99855 17.8596 6.77855C17.8696 6.35855 17.5896 6.03855 17.1896 6.01855C16.7896 5.99855 16.4796 6.28855 16.4496 6.72855C16.3196 8.76855 16.1796 10.8086 16.0396 12.8486C16.0396 12.8986 16.0396 12.9486 16.0196 13.0286C15.5396 13.0286 15.0596 13.0286 14.5896 13.0186C14.5296 13.0186 14.4596 12.9486 14.4296 12.8886C13.8896 11.7186 13.3596 10.5486 12.8396 9.36856C12.8096 9.30855 12.7996 9.19855 12.8296 9.13855C13.8996 6.74855 14.9796 4.37855 16.0596 1.99855C16.0696 1.97855 16.0796 1.96855 16.0996 1.94855C16.1296 1.95855 16.1696 1.95855 16.1996 1.97855C16.6996 2.21855 17.1996 2.45855 17.6896 2.70855C19.0996 3.45855 19.8596 4.63855 19.9096 6.22855C20.0096 9.27855 20.0796 12.3186 20.1596 15.3686C20.1896 16.3686 20.2196 17.3786 20.2496 18.3886V18.7286Z" fill="#018058"/>
</g>
<defs>
<clipPath id="clip0_1650_12390">
<rect width="24" height="24" fill="white" transform="translate(0 0.268555)"/>
</clipPath>
</defs>
</svg>
