<svg width="24" height="25" viewBox="0 0 24 25" fill="none" xmlns="http://www.w3.org/2000/svg">
<g clip-path="url(#clip0_1650_12414)">
<path d="M23.4598 24.0186V22.2786C23.4498 21.1986 22.9498 20.4886 21.9198 20.1386C21.7998 20.0886 21.7698 20.0286 21.7698 19.9086C21.7698 19.5886 21.7798 19.2586 21.7598 18.9286C21.6198 16.9586 19.6498 15.4686 17.7198 15.9186C16.9698 16.0986 16.2298 16.3686 15.4898 16.6086C15.0298 16.7586 14.5698 16.7586 14.1098 16.6086C13.7398 16.4886 13.3698 16.3586 12.9998 16.2586C12.7898 16.1986 12.7198 16.1086 12.7198 15.8886C12.7298 14.1186 12.7298 12.3586 12.7198 10.5886C12.7198 10.3286 12.7198 10.0586 12.6798 9.79855C12.3598 7.78855 10.9498 6.32855 8.94977 5.95855C8.77977 5.92855 8.73977 5.86855 8.73977 5.70855C8.74977 4.91855 8.73977 4.12855 8.73977 3.33855C8.73977 3.25855 8.72976 3.17855 8.72976 3.06855H7.34977V1.67855H7.58977C8.27977 1.67855 8.97977 1.67855 9.66977 1.67855C9.79977 1.67855 9.93977 1.73855 10.0498 1.80855C10.8698 2.37855 11.6798 2.96855 12.5098 3.55855C12.7798 3.17855 13.0398 2.80855 13.3198 2.41855C12.8998 2.11855 12.4998 1.82855 12.0998 1.53855C11.5198 1.11855 10.9398 0.688555 10.3598 0.268555H3.18977V1.67855H5.91977V3.06855H4.52977C4.52977 3.17855 4.51977 3.25855 4.51977 3.33855C4.51977 4.12855 4.51977 4.91855 4.52977 5.70855C4.52977 5.85855 4.48977 5.92855 4.31977 5.95855C2.30977 6.32855 0.899766 7.78855 0.579766 9.79855C0.539766 10.0686 0.539766 10.3586 0.539766 10.6386V23.9486C0.539766 24.0486 0.519766 24.1586 0.509766 24.2686H23.4798C23.4798 24.1886 23.4598 24.0986 23.4598 24.0186ZM11.7098 17.3186C12.3698 17.5086 13.0298 17.7286 13.6898 17.9486C14.4298 18.1886 15.1598 18.1886 15.8998 17.9486C16.5098 17.7486 17.1298 17.5586 17.7498 17.3586C19.0798 16.9386 20.3498 17.8586 20.3698 19.2586V20.0286H9.23977C9.23977 19.6886 9.20977 19.3486 9.23977 19.0186C9.34976 17.8386 10.5698 16.9986 11.7098 17.3186ZM5.94977 4.49855H7.31977V5.88855H5.94977V4.49855ZM6.12977 22.8486H1.95977C1.94977 22.7686 1.93977 22.6886 1.93977 22.5986C1.93977 18.5686 1.93977 14.5386 1.94977 10.5086C1.94977 8.63855 3.29977 7.29855 5.16977 7.29855H8.14977C9.89977 7.29855 11.2698 8.58855 11.3098 10.3386C11.3498 12.1286 11.3198 13.9186 11.3198 15.7086C11.3198 15.7386 11.3098 15.7786 11.2998 15.8386C10.1698 15.8486 9.26977 16.2786 8.55977 17.1286C7.83977 17.9986 7.75977 19.0186 7.83977 20.0686C6.40977 20.4786 5.99977 21.4986 6.12977 22.8486ZM22.0498 22.8586H7.50977C7.52977 22.5486 7.50977 22.2486 7.55977 21.9486C7.60977 21.6786 7.88977 21.4786 8.17977 21.4586C8.24977 21.4486 8.31977 21.4586 8.38977 21.4586H21.1898C21.7998 21.4586 22.0498 21.7086 22.0498 22.3186V22.8586Z" fill="#018058"/>
<path d="M6.67004 10.2984C5.46004 10.2884 4.54004 11.1984 4.54004 12.4084C4.54004 13.6184 5.45004 14.5184 6.66004 14.5184C7.80004 14.5184 8.73004 13.5584 8.74004 12.4084C8.74004 11.2684 7.80004 10.3084 6.67004 10.2984ZM6.62004 13.1084C6.24004 13.1084 5.93004 12.7784 5.93004 12.3984C5.94004 12.0184 6.26004 11.6984 6.64004 11.7084C7.04004 11.7184 7.33004 12.0184 7.32004 12.4184C7.32004 12.8184 7.02004 13.1184 6.62004 13.1084Z" fill="#018058"/>
</g>
<defs>
<clipPath id="clip0_1650_12414">
<rect width="24" height="24" fill="white" transform="translate(0 0.268555)"/>
</clipPath>
</defs>
</svg>
