<svg width="24" height="25" viewBox="0 0 24 25" fill="none" xmlns="http://www.w3.org/2000/svg">
<g clip-path="url(#clip0_1650_12365)">
<path d="M15.5098 13.7188C15.5198 13.9488 15.5098 14.1787 15.5098 14.4187C15.5198 14.4687 15.5198 14.5287 15.5198 14.5887V14.4187C15.5098 14.1787 15.5198 13.9488 15.5098 13.7188Z" fill="white"/>
<path d="M19.8404 7.45855C19.7704 7.42855 19.7004 7.33855 19.6904 7.25855C19.2504 5.04855 17.8304 3.59855 15.6404 3.15855C15.4904 3.12855 15.4404 3.06855 15.4004 2.92855C15.0804 1.74855 14.3504 0.928555 13.2004 0.488555C12.9504 0.388555 12.6804 0.338555 12.4204 0.268555H5.95035C5.80035 0.308555 5.64035 0.338555 5.48035 0.388555C3.94035 0.798555 2.86035 2.17855 2.86035 3.77855V23.4886C2.86035 23.8786 3.06035 24.1086 3.37035 24.2686H3.75035C4.15035 24.0786 4.28035 23.7586 4.27035 23.3286C4.25035 21.8586 4.27035 20.3886 4.27035 18.9186V18.6586H5.67035V19.2986C5.68035 19.7386 5.97035 20.0486 6.38035 20.0486C6.79035 20.0486 7.08035 19.7386 7.08035 19.2986V16.5786C7.08035 16.1486 6.78035 15.8286 6.38035 15.8286C5.98035 15.8286 5.68035 16.1486 5.67035 16.5786V17.2286H4.27035V17.0786C4.27035 12.6486 4.26035 8.20855 4.27035 3.76855C4.27035 2.60855 5.20035 1.68855 6.36035 1.67855C8.25035 1.67855 10.1404 1.67855 12.0304 1.67855C12.8004 1.68855 13.3904 2.03855 13.8004 2.68855C13.8804 2.82855 13.9404 2.97855 14.0104 3.12855C13.9504 3.14855 13.9304 3.15855 13.9104 3.16855C11.8204 3.60855 10.3604 5.07855 9.96035 7.17855C9.93035 7.33855 9.87035 7.42855 9.72035 7.49855C9.06035 7.80855 8.62035 8.31855 8.53035 9.03856C8.46035 9.60855 8.49035 10.1986 8.49035 10.7686C8.48035 11.2286 8.78035 11.5186 9.24035 11.5186H20.3904C20.8503 11.5186 21.1404 11.2186 21.1404 10.7686V9.47855C21.1304 8.52855 20.6904 7.85855 19.8404 7.45855ZM14.6704 4.48855C16.8204 4.41855 18.1004 6.13855 18.2204 7.28855H11.4104C11.3704 6.00855 13.0904 4.53855 14.6704 4.48855ZM19.7304 10.1086H9.90035C9.90035 9.82856 9.87035 9.55856 9.90035 9.28856C9.94035 8.93855 10.2404 8.70855 10.6104 8.70855C11.1304 8.69855 11.6604 8.70855 12.1804 8.70855H18.8804C19.4604 8.70855 19.7204 8.96855 19.7204 9.54855V10.1086H19.7304Z" fill="#018058"/>
<path d="M11.4804 22.3087C11.4304 22.7687 11.3604 23.2187 11.2904 23.6787C11.2404 23.9787 11.0304 24.1387 10.7804 24.2687H10.4104C9.98038 24.0587 9.82038 23.7287 9.92038 23.2587C10.0004 22.8887 10.0304 22.5187 10.0804 22.1487C10.1504 21.6987 10.4804 21.4087 10.8804 21.4587C11.2804 21.5087 11.5304 21.8487 11.4804 22.3087Z" fill="#018058"/>
<path d="M19.7297 23.4687C19.7797 23.8687 19.5397 24.0987 19.2197 24.2687H18.8397C18.4897 24.1087 18.3297 23.8287 18.2997 23.4487C18.2597 23.0287 18.1697 22.6087 18.1397 22.1887C18.0997 21.6387 18.6697 21.2887 19.1497 21.5387C19.3697 21.6587 19.4897 21.8387 19.5297 22.0787C19.5997 22.5387 19.6697 22.9987 19.7297 23.4687Z" fill="#018058"/>
<path d="M15.5205 23.3285C15.5505 23.7585 15.4005 24.0785 15.0005 24.2685H14.6205C14.2205 24.0785 14.0805 23.7585 14.1005 23.3285C14.1305 22.9485 14.1105 22.5785 14.1105 22.1985C14.1105 21.7685 14.4105 21.4585 14.8105 21.4585C15.2105 21.4585 15.5105 21.7685 15.5105 22.1985C15.5205 22.5785 15.5005 22.9485 15.5205 23.3285Z" fill="#018058"/>
<path d="M12.7003 13.8183C12.6303 14.2683 12.5703 14.7883 12.4703 15.2883C12.4003 15.6483 12.0603 15.8683 11.7103 15.8283C11.3503 15.7783 11.0703 15.4683 11.1103 15.1083C11.1603 14.5883 11.2303 14.0683 11.3203 13.5583C11.3903 13.1983 11.7403 12.9783 12.0903 13.0183C12.4503 13.0683 12.7103 13.3883 12.7003 13.8183Z" fill="#018058"/>
<path d="M18.5205 15.0187C18.5305 15.4787 18.2705 15.7787 17.9105 15.8287C17.5605 15.8687 17.2205 15.6487 17.1505 15.2787C17.0605 14.7787 16.9805 14.2687 16.9305 13.7587C16.8905 13.3887 17.1805 13.0687 17.5405 13.0187C17.8905 12.9787 18.2405 13.2087 18.3005 13.5687C18.4005 14.0687 18.4605 14.5787 18.5205 15.0187Z" fill="#018058"/>
<path d="M19.1297 19.2487C19.1297 19.6887 18.8797 19.9887 18.5397 20.0387C18.1997 20.0987 17.8297 19.8887 17.7697 19.5487C17.6597 19.0087 17.5797 18.4687 17.5397 17.9287C17.4997 17.5787 17.7997 17.2887 18.1397 17.2387C18.4797 17.1987 18.8297 17.4087 18.8997 17.7587C18.9997 18.2787 19.0597 18.8087 19.1297 19.2487Z" fill="#018058"/>
<path d="M12.0903 17.9687C12.0403 18.4887 11.9703 19.0087 11.8703 19.5187C11.8003 19.8787 11.4403 20.0987 11.0903 20.0387C10.7403 19.9887 10.4903 19.6787 10.5003 19.2487C10.5603 18.8087 10.6203 18.2887 10.7203 17.7887C10.7903 17.4187 11.1503 17.1887 11.5003 17.2487C11.8503 17.2987 12.1303 17.6087 12.0903 17.9687Z" fill="#018058"/>
<path d="M15.52 14.4186V14.5886C15.52 14.7586 15.52 14.9386 15.51 15.1186C15.5 15.5286 15.2 15.8386 14.8 15.8286C14.42 15.8286 14.12 15.5186 14.11 15.1286C14.1 14.6586 14.1 14.1886 14.11 13.7186C14.12 13.3186 14.43 13.0186 14.81 13.0186C15.19 13.0186 15.5 13.3186 15.51 13.7186C15.52 13.9486 15.51 14.1786 15.52 14.4186Z" fill="#018058"/>
<path d="M15.52 18.6588C15.52 18.8888 15.52 19.1088 15.51 19.3388C15.5 19.7488 15.19 20.0588 14.8 20.0488C14.42 20.0388 14.12 19.7388 14.11 19.3388C14.1 18.8688 14.1 18.4088 14.11 17.9388C14.12 17.5388 14.43 17.2388 14.81 17.2388C15.19 17.2388 15.5 17.5388 15.51 17.9388C15.52 18.1788 15.52 18.4188 15.52 18.6588Z" fill="#018058"/>
</g>
<defs>
<clipPath id="clip0_1650_12365">
<rect width="24" height="24" fill="white" transform="translate(0 0.268555)"/>
</clipPath>
</defs>
</svg>
