<svg width="24" height="25" viewBox="0 0 24 25" fill="none" xmlns="http://www.w3.org/2000/svg">
<g clip-path="url(#clip0_1650_12399)">
<path d="M23.56 5.99844C23.48 5.96844 23.41 5.85844 23.39 5.76844C23.26 5.25844 23.18 4.73844 23.01 4.23844C22.6 2.97844 21.86 1.93844 20.71 1.23844C19.3 0.378441 17.74 0.148441 16.12 0.418441C14.72 0.668441 13.76 1.49844 13.24 2.83844C12.87 3.78844 12.78 4.78844 12.82 5.79844C12.82 5.92844 12.8 6.01844 12.68 6.10844C12.48 6.23844 12.4 6.45844 12.41 6.69844C12.41 6.84844 12.43 6.98844 12.44 7.13844C12.57 9.00844 12.69 10.8884 12.82 12.7584C12.85 13.1584 13.09 13.3984 13.48 13.4584C13.53 13.4584 13.57 13.4684 13.61 13.4784C13.65 13.9984 13.69 14.4884 13.7 14.9884C13.74 16.7084 13.75 18.4384 13.8 20.1584C13.86 21.8584 14.67 23.0984 16.2 23.8484C16.61 24.0484 17.09 24.1284 17.54 24.2684H18.43C18.67 24.2184 18.9 24.1784 19.13 24.1084C20.89 23.5484 21.91 22.3584 22.16 20.5384C22.31 19.5084 22.37 18.4784 22.45 17.4484C22.57 16.1284 22.67 14.8084 22.78 13.4984C23.44 13.3284 23.54 13.1984 23.59 12.5484C23.71 10.7584 23.83 8.95844 23.96 7.15844C23.96 7.09844 23.99 7.02844 24 6.95844V6.48844C23.9 6.28844 23.79 6.09844 23.56 5.99844ZM14.74 2.92844C15.06 2.36844 15.52 1.97844 16.15 1.85844C17.71 1.53844 19.17 1.74844 20.43 2.76844C21.27 3.43844 21.67 4.38844 21.9 5.40844C21.93 5.57844 21.96 5.74844 21.99 5.92844H14.23C14.18 4.87844 14.22 3.85844 14.74 2.92844ZM21.27 14.6884C21.17 16.0084 21.08 17.3284 20.95 18.6484C20.88 19.4284 20.83 20.2284 20.61 20.9784C20.11 22.7384 17.82 23.4384 16.36 22.3384C15.59 21.7584 15.22 20.9984 15.2 20.0284C15.16 17.8984 15.09 15.7584 15.03 13.6284V13.4684H21.38C21.35 13.8884 21.31 14.2884 21.27 14.6884ZM22.22 12.0484H14.18C14.15 11.5084 14.11 10.9784 14.07 10.4284H22.33C22.29 10.9684 22.26 11.5084 22.22 12.0484ZM22.48 8.21844C22.48 8.30844 22.47 8.38844 22.46 8.47844C22.44 8.83177 22.26 9.00844 21.92 9.00844H13.97C13.94 8.44844 13.9 7.91844 13.86 7.36844H22.54C22.52 7.65844 22.5 7.93844 22.48 8.21844Z" fill="#018058"/>
<path d="M11.3901 6.11845C11.2501 6.02845 11.2201 5.91845 11.2301 5.76845C11.2601 4.73845 11.1701 3.71845 10.7701 2.74845C10.2701 1.51845 9.37007 0.748451 8.08007 0.448451C7.18007 0.238451 6.28007 0.298451 5.39007 0.458451C3.73007 0.768451 2.43007 1.60845 1.56007 3.06845C1.06007 3.90845 0.800069 4.82845 0.660069 5.77845C0.640069 5.85845 0.590069 5.95845 0.520069 5.98845C0.150069 6.17845 0.0300688 6.38845 0.0600688 6.80845C0.190069 8.72845 0.320069 10.6385 0.460069 12.5485C0.500069 13.2085 0.610069 13.3285 1.27007 13.4985C1.37007 14.8085 1.48007 16.1285 1.59007 17.4485C1.68007 18.4785 1.74007 19.5084 1.88007 20.5385C2.13007 22.3584 3.16007 23.5485 4.92007 24.1084C5.14007 24.1784 5.38007 24.2185 5.61007 24.2684H6.50007C6.56007 24.2484 6.62007 24.2285 6.68007 24.2185C8.68007 23.9485 10.2201 22.1784 10.2501 20.1584C10.2701 18.4384 10.3101 16.7285 10.3501 15.0085C10.3501 14.4985 10.4001 13.9885 10.4301 13.4785C11.0201 13.3885 11.2001 13.1885 11.2301 12.5985C11.2301 12.5285 11.2301 12.4585 11.2501 12.3885C11.3801 10.5085 11.5101 8.61845 11.6401 6.73845C11.6601 6.49845 11.5901 6.26845 11.3901 6.11845ZM3.75007 2.65845C4.44007 2.11845 5.24007 1.84845 6.10007 1.77845C6.59007 1.73845 7.10007 1.71845 7.59007 1.78845C8.72007 1.93845 9.34007 2.67845 9.64007 3.72845C9.84007 4.44845 9.85007 5.17845 9.82007 5.92845H2.06007C2.26007 4.63845 2.69007 3.47845 3.75007 2.65845ZM8.99007 14.1285C8.94007 16.1485 8.88007 18.1684 8.84007 20.1884C8.82007 21.7185 7.37007 23.0184 5.84007 22.8484C4.43007 22.6985 3.46007 21.7984 3.28007 20.3984C3.13007 19.2084 3.06007 18.0084 2.95007 16.8184C2.86007 15.7884 2.77007 14.7685 2.68007 13.7385C2.68007 13.6585 2.67007 13.5685 2.66007 13.4685H9.02007C9.01007 13.6985 8.99007 13.9185 8.99007 14.1285ZM9.86007 12.0385H1.83007C1.79007 11.5085 1.76007 10.9785 1.72007 10.4285H9.98007C9.94007 10.9685 9.90007 11.4985 9.86007 12.0385ZM10.0701 9.00845H9.82007C7.17007 9.00845 4.52007 9.00845 1.87007 9.00845C1.66007 9.00845 1.60007 8.93845 1.59007 8.73845C1.58007 8.28845 1.54007 7.83845 1.51007 7.35845H10.1901C10.1501 7.90845 10.1101 8.43845 10.0701 9.00845Z" fill="#018058"/>
</g>
<defs>
<clipPath id="clip0_1650_12399">
<rect width="24" height="24" fill="white" transform="translate(0 0.268555)"/>
</clipPath>
</defs>
</svg>
