<svg width="24" height="25" viewBox="0 0 24 25" fill="none" xmlns="http://www.w3.org/2000/svg">
<g clip-path="url(#clip0_1650_12407)">
<path d="M23.93 2.54855C23.77 2.24855 23.45 2.08855 23.15 2.15855C22.82 2.23855 22.61 2.49855 22.59 2.84855V3.06855H21.14V2.59855C21.14 1.32855 20.58 0.598555 19.35 0.288555C19.35 0.288555 19.33 0.278555 19.31 0.268555H4.69C4.47 0.348555 4.23 0.398555 4.03 0.498555C3.3 0.878555 2.91 1.48855 2.86 2.30855C2.85 2.55855 2.86 2.80855 2.86 3.06855H1.4C1.4 2.96855 1.4 2.88855 1.4 2.80855C1.38 2.48855 1.16 2.22855 0.85 2.15855C0.56 2.08855 0.25 2.22855 0.09 2.50855C0.06 2.55855 0.03 2.60855 0 2.65855V7.71855C0 7.71855 0.05 7.79855 0.07 7.83855C0.23 8.13856 0.55 8.28855 0.85 8.21855C1.18 8.13855 1.39 7.87855 1.41 7.52855V7.30855H2.86V7.59855C2.86 12.8386 2.86 18.0886 2.85 23.3286C2.85 23.7586 2.97 24.0786 3.38 24.2686H17.81C18.22 24.0786 18.34 23.7586 18.33 23.3286C18.32 22.1686 18.33 21.0186 18.33 19.8586V19.5786C18.92 19.5786 19.5 19.5586 20.07 19.5886C20.89 19.6286 21.15 19.3186 21.15 18.5186C21.13 14.8786 21.14 11.2386 21.14 7.59855V7.30855H22.59V7.50855C22.61 7.86855 22.81 8.13855 23.15 8.21855C23.46 8.29855 23.78 8.12855 23.94 7.81855C23.96 7.77855 23.98 7.74855 24 7.71855V2.65855C24 2.65855 23.95 2.58855 23.93 2.54855ZM2.84 5.87855H1.42V4.50855H2.84V5.87855ZM16.9 22.8486H4.28V21.4686H16.9V22.8486ZM16.93 5.81855C16.91 10.4686 16.92 15.1086 16.92 19.7486V20.0386H4.27V2.52855C4.27 1.92855 4.53 1.67855 5.12 1.67855H16.99C16.85 3.06855 16.93 4.44855 16.93 5.81855ZM18.36 2.19855C18.42 1.86855 18.74 1.65855 19.07 1.67855C19.4 1.69855 19.7 1.95855 19.73 2.29855C19.75 2.54855 19.73 2.79855 19.73 3.06855H18.35C18.35 2.77855 18.32 2.48855 18.36 2.19855ZM19.72 18.1586H18.34V7.30855H19.72V18.1586ZM22.58 5.87855H18.35V4.50855H22.58V5.87855Z" fill="#018058"/>
</g>
<defs>
<clipPath id="clip0_1650_12407">
<rect width="24" height="24" fill="white" transform="translate(0 0.268555)"/>
</clipPath>
</defs>
</svg>
