<svg xmlns="http://www.w3.org/2000/svg" width="16" height="16" viewBox="0 0 16 16" fill="none"><path d="M14.9948 9.07447C14.9856 8.29483 14.5432 7.67749 13.8108 7.40699C13.7105 7.37002 13.6975 7.3142 13.6975 7.22415C13.6995 6.26784 13.6992 5.31118 13.6988 4.35452C13.6985 4.12991 13.6769 3.90838 13.5704 3.70534C13.3171 3.22187 12.9113 2.99966 12.3703 3C9.45515 3.00171 6.53999 3.00069 3.62447 3.00103C3.55634 3.00103 3.48751 3.0024 3.42006 3.00993C3.08862 3.04657 2.81436 3.19106 2.59694 3.44512C2.37438 3.70465 2.29769 4.00973 2.29803 4.34322C2.29905 5.30433 2.297 6.26544 2.30077 7.22655C2.30111 7.32961 2.27029 7.37686 2.171 7.4111C1.79744 7.54087 1.50812 7.78021 1.2883 8.10891C1.12497 8.35304 1.05239 8.62661 1 8.90909V11.5336C1.06916 11.6205 1.12395 11.7284 1.21194 11.7876C1.28761 11.839 1.4006 11.8486 1.49785 11.8517C1.76012 11.8599 2.02308 11.8544 2.29837 11.8544C2.29837 11.9314 2.29769 11.99 2.29837 12.0482C2.30077 12.2485 2.29426 12.4495 2.3083 12.6487C2.32234 12.8473 2.48224 12.9946 2.67432 13.0103C2.87908 13.0268 3.05644 12.91 3.10814 12.7135C3.12766 12.6402 3.12903 12.5608 3.13005 12.4841C3.13279 12.2762 3.13108 12.0687 3.13108 11.866H12.8668C12.8668 12.1184 12.8617 12.3594 12.8685 12.6001C12.875 12.8378 13.05 13.0083 13.2753 13.0117C13.4995 13.0148 13.6707 12.859 13.693 12.6285C13.6992 12.5652 13.6985 12.5012 13.6985 12.4375C13.6992 12.2478 13.6988 12.0581 13.6988 11.8544H13.8642C14.0919 11.8544 14.3199 11.8582 14.5476 11.8534C14.8274 11.8469 14.9955 11.6822 14.9965 11.411C14.9986 10.632 15.004 9.85308 14.9948 9.07447ZM3.13108 7.14506C3.13108 6.20689 3.13074 5.26838 3.13108 4.33021C3.13142 3.98405 3.2855 3.82826 3.62961 3.82826C6.54033 3.82792 9.4507 3.82792 12.3614 3.82792C12.7141 3.82792 12.8661 3.982 12.8661 4.33775C12.8665 5.27146 12.8661 6.20518 12.8661 7.1389V7.29058H11.8927C11.8927 7.10397 11.8992 6.91839 11.891 6.73384C11.8824 6.53012 11.8917 6.31817 11.8386 6.12506C11.6773 5.53819 11.226 5.17388 10.6159 5.15539C10.0064 5.13656 9.39592 5.15299 8.78577 5.16292C8.52315 5.16737 8.29032 5.27181 8.08796 5.43787C8.02599 5.48854 7.98182 5.50018 7.91402 5.44198C7.65962 5.22421 7.35421 5.1482 7.02687 5.14717C6.5078 5.1458 5.98838 5.14306 5.46931 5.14786C4.66673 5.15539 4.11136 5.71692 4.10486 6.52258C4.1028 6.77664 4.10451 7.0307 4.10451 7.29058H3.13108V7.14506ZM11.0593 7.2875H8.41975C8.41975 6.98824 8.40365 6.69241 8.42488 6.39966C8.44303 6.14903 8.6471 5.98468 8.9015 5.98296C9.46166 5.97954 10.0218 5.9792 10.582 5.98331C10.8367 5.98502 11.0463 6.17265 11.0565 6.41952C11.0685 6.70508 11.0593 6.99201 11.0593 7.2875ZM7.57916 7.29332H4.94818C4.94818 6.97831 4.92798 6.66502 4.95503 6.35549C4.9742 6.13362 5.18272 5.98468 5.41213 5.98331C5.97674 5.97954 6.5417 5.9792 7.10631 5.98365C7.3566 5.98536 7.55793 6.15793 7.57471 6.40993C7.59354 6.69892 7.57916 6.9903 7.57916 7.29332ZM14.1662 10.9607C14.1662 10.9737 14.1604 10.9864 14.1549 11.0087H1.83613C1.83374 10.9642 1.82997 10.9285 1.82997 10.8929C1.82963 10.3102 1.82723 9.72708 1.83031 9.14397C1.83374 8.52081 2.22236 8.13527 2.84723 8.12843C2.86093 8.12808 2.87462 8.12843 2.88832 8.12843C6.29483 8.12843 9.70168 8.12911 13.1082 8.12706C13.4496 8.12671 13.7447 8.21539 13.9645 8.49274C14.1035 8.66804 14.1645 8.8704 14.1659 9.08885C14.1693 9.7127 14.1669 10.3369 14.1662 10.9607Z" fill="#4F5E71" stroke="#4F5E71" stroke-width="0.5"></path></svg>