<svg xmlns="http://www.w3.org/2000/svg" width="24" height="25" viewBox="0 0 24 25" fill="none"><path d="M6 15.0513C7.65685 15.0513 9 13.7081 9 12.0513C9 10.3944 7.65685 9.05127 6 9.05127C4.34315 9.05127 3 10.3944 3 12.0513C3 13.7081 4.34315 15.0513 6 15.0513Z" stroke="#01AA90" stroke-width="1.5" stroke-linecap="round" stroke-linejoin="round"></path><path d="M16.5 21.8013C18.1569 21.8013 19.5 20.4581 19.5 18.8013C19.5 17.1444 18.1569 15.8013 16.5 15.8013C14.8431 15.8013 13.5 17.1444 13.5 18.8013C13.5 20.4581 14.8431 21.8013 16.5 21.8013Z" stroke="#01AA90" stroke-width="1.5" stroke-linecap="round" stroke-linejoin="round"></path><path d="M16.5 8.30127C18.1569 8.30127 19.5 6.95812 19.5 5.30127C19.5 3.64442 18.1569 2.30127 16.5 2.30127C14.8431 2.30127 13.5 3.64442 13.5 5.30127C13.5 6.95812 14.8431 8.30127 16.5 8.30127Z" stroke="#01AA90" stroke-width="1.5" stroke-linecap="round" stroke-linejoin="round"></path><path d="M13.9782 6.92334L8.52197 10.4296" stroke="#01AA90" stroke-width="1.5" stroke-linecap="round" stroke-linejoin="round"></path><path d="M8.52197 13.6733L13.9782 17.1796" stroke="#01AA90" stroke-width="1.5" stroke-linecap="round" stroke-linejoin="round"></path></svg>